<svg width="925" height="600" xmlns="http://www.w3.org/2000/svg" xmlns:xlink="http://www.w3.org/1999/xlink" xml:space="preserve" overflow="hidden"><g transform="translate(-1097 -1180)"><path d="M1451.4 1357C1439.23 1357.26 1429.47 1360.83 1422.12 1367.72 1414.77 1374.6 1410.99 1383.25 1410.8 1393.66L1410.8 1402.45C1410.99 1412.71 1414.77 1421.27 1422.12 1428.13 1429.47 1434.98 1439.23 1438.54 1451.4 1438.81L1467.46 1438.81C1479.63 1438.54 1489.44 1434.98 1496.89 1428.13 1504.33 1421.27 1508.15 1412.71 1508.36 1402.45L1508.36 1393.66C1508.15 1383.25 1504.33 1374.6 1496.89 1367.72 1489.44 1360.83 1479.63 1357.26 1467.46 1357ZM1437.16 1307.31 1481.7 1307.31C1500.17 1307.54 1516.09 1311.72 1529.46 1319.83 1542.83 1327.95 1553.14 1338.58 1560.39 1351.75 1567.63 1364.91 1571.3 1379.19 1571.39 1394.57L1571.39 1401.24C1571.3 1416.62 1567.63 1430.9 1560.39 1444.06 1553.14 1457.23 1542.83 1467.86 1529.46 1475.98 1516.09 1484.09 1500.17 1488.27 1481.7 1488.5L1437.16 1488.5C1418.69 1488.27 1402.8 1484.09 1389.47 1475.98 1376.15 1467.86 1365.89 1457.23 1358.69 1444.06 1351.49 1430.9 1347.85 1416.62 1347.77 1401.24L1347.77 1394.57C1347.85 1379.19 1351.49 1364.91 1358.69 1351.75 1365.89 1338.58 1376.15 1327.95 1389.47 1319.83 1402.8 1311.72 1418.69 1307.54 1437.16 1307.31Z" stroke="#000000" stroke-linejoin="round" stroke-miterlimit="10" fill="#FFD600" fill-rule="evenodd"/><text fill="#000000" fill-opacity="0" font-family="Arial,Arial_MSFontService,sans-serif" font-size="181.194" x="1347.77" y="1465.85">ㅇ</text><path d="M1687.55 1599.05 1687.55 1639.96 1724.82 1639.96 1724.82 1599.05ZM1593.62 1599.05 1593.62 1630.87C1593.57 1633.9 1594.21 1636.17 1595.56 1637.68 1596.9 1639.2 1599.29 1639.96 1602.71 1639.96L1631.2 1639.96 1631.2 1599.05ZM1564.84 1508.15C1572.27 1508.14 1578.85 1510.58 1584.57 1515.46 1590.3 1520.34 1593.31 1527.7 1593.62 1537.54L1593.62 1553.3 1631.2 1553.3 1631.2 1537.54C1631.42 1527.49 1634.23 1520.25 1639.6 1515.84 1644.98 1511.43 1651.57 1509.27 1659.38 1509.36 1667.04 1509.29 1673.6 1511.48 1679.03 1515.95 1684.47 1520.42 1687.31 1527.62 1687.55 1537.54L1687.55 1553.3 1724.82 1553.3 1724.82 1536.94C1725.08 1526.99 1727.98 1519.69 1733.53 1515.04 1739.09 1510.4 1745.78 1508.1 1753.61 1508.15 1761.3 1508.1 1767.96 1510.4 1773.57 1515.04 1779.18 1519.69 1782.12 1526.99 1782.39 1536.94L1782.39 1688.13 1579.08 1688.13C1561.5 1688.36 1549.77 1684.95 1543.89 1677.91 1538.02 1670.86 1535.3 1658.82 1535.75 1641.77L1535.75 1536.94C1536 1526.85 1538.91 1519.52 1544.5 1514.93 1550.09 1510.34 1556.87 1508.08 1564.84 1508.15Z" stroke="#000000" stroke-linejoin="round" stroke-miterlimit="10" fill="#FFD600" fill-rule="evenodd"/><text fill="#000000" fill-opacity="0" font-family="Arial,Arial_MSFontService,sans-serif" font-size="179.994" x="1535.7" y="1665.64">ㅃ</text></g></svg>