<svg width="725" height="400" xmlns="http://www.w3.org/2000/svg" xmlns:xlink="http://www.w3.org/1999/xlink" xml:space="preserve" overflow="hidden"><g transform="translate(-1097 -1180)"><path d="M1639.51 1399.12 1639.51 1440.02 1676.78 1440.02 1676.78 1399.12ZM1545.58 1399.12 1545.58 1430.93C1545.52 1433.96 1546.16 1436.23 1547.51 1437.75 1548.85 1439.26 1551.24 1440.02 1554.67 1440.02L1583.15 1440.02 1583.15 1399.12ZM1300.15 1357C1287.98 1357.26 1278.22 1360.83 1270.87 1367.72 1263.52 1374.6 1259.74 1383.25 1259.55 1393.66L1259.55 1402.45C1259.74 1412.71 1263.52 1421.27 1270.87 1428.13 1278.22 1434.98 1287.98 1438.54 1300.15 1438.81L1316.21 1438.81C1328.38 1438.54 1338.19 1434.98 1345.64 1428.13 1353.08 1421.27 1356.9 1412.71 1357.11 1402.45L1357.11 1393.66C1356.9 1383.25 1353.08 1374.6 1345.64 1367.72 1338.19 1360.83 1328.38 1357.26 1316.21 1357ZM1516.79 1308.22C1524.22 1308.21 1530.8 1310.65 1536.53 1315.53 1542.25 1320.41 1545.27 1327.77 1545.58 1337.61L1545.58 1353.36 1583.15 1353.36 1583.15 1337.61C1583.38 1327.55 1586.18 1320.32 1591.56 1315.91 1596.94 1311.49 1603.53 1309.33 1611.33 1309.43 1619 1309.35 1625.55 1311.55 1630.99 1316.02 1636.42 1320.49 1639.26 1327.68 1639.51 1337.61L1639.51 1353.36 1676.78 1353.36 1676.78 1337C1677.03 1327.05 1679.93 1319.76 1685.49 1315.11 1691.04 1310.46 1697.73 1308.17 1705.56 1308.22 1713.26 1308.17 1719.91 1310.46 1725.52 1315.11 1731.13 1319.76 1734.08 1327.05 1734.35 1337L1734.35 1488.2 1531.03 1488.2C1513.45 1488.43 1501.72 1485.02 1495.85 1477.97 1489.97 1470.93 1487.26 1458.88 1487.7 1441.84L1487.7 1337C1487.95 1326.92 1490.87 1319.59 1496.45 1315 1502.04 1310.41 1508.82 1308.15 1516.79 1308.22ZM1285.91 1307.31 1330.45 1307.31C1348.92 1307.54 1364.84 1311.72 1378.21 1319.83 1391.58 1327.95 1401.89 1338.58 1409.14 1351.75 1416.38 1364.91 1420.05 1379.19 1420.14 1394.57L1420.14 1401.24C1420.05 1416.62 1416.38 1430.9 1409.14 1444.06 1401.89 1457.23 1391.58 1467.86 1378.21 1475.98 1364.84 1484.09 1348.92 1488.27 1330.45 1488.5L1285.91 1488.5C1267.44 1488.27 1251.55 1484.09 1238.22 1475.98 1224.9 1467.86 1214.64 1457.23 1207.44 1444.06 1200.24 1430.9 1196.6 1416.62 1196.52 1401.24L1196.52 1394.57C1196.6 1379.19 1200.24 1364.91 1207.44 1351.75 1214.64 1338.58 1224.9 1327.95 1238.22 1319.83 1251.55 1311.72 1267.44 1307.54 1285.91 1307.31Z" stroke="#000000" stroke-linejoin="round" stroke-miterlimit="10" fill="#FFD600" fill-rule="evenodd"/><text fill="#000000" fill-opacity="0" font-family="Arial,Arial_MSFontService,sans-serif" font-size="181.194" x="1196.52" y="1465.85">ㅇㅃ</text></g></svg>